<mxfile host="drawio.yandex-team.ru" agent="Mozilla/5.0 (Macintosh; Intel Mac OS X 10_15_7) AppleWebKit/537.36 (KHTML, like Gecko) Chrome/132.0.0.0 YaBrowser/25.2.0.0 Safari/537.36" version="24.7.8">
  <diagram name="Page-1" id="xOArDndSjSA-d0e_20V2">
    <mxGraphModel dx="1985" dy="1409" grid="1" gridSize="10" guides="1" tooltips="1" connect="1" arrows="1" fold="1" page="1" pageScale="1" pageWidth="827" pageHeight="1169" math="0" shadow="0">
      <root>
        <mxCell id="0" />
        <mxCell id="1" parent="0" />
        <mxCell id="DQRrSMZlwbo2s5G8Pi1W-30" style="edgeStyle=orthogonalEdgeStyle;rounded=1;orthogonalLoop=1;jettySize=auto;html=1;entryX=0;entryY=0.5;entryDx=0;entryDy=0;curved=0;strokeColor=#000000;" edge="1" parent="1" source="DQRrSMZlwbo2s5G8Pi1W-28" target="DQRrSMZlwbo2s5G8Pi1W-29">
          <mxGeometry relative="1" as="geometry" />
        </mxCell>
        <mxCell id="DQRrSMZlwbo2s5G8Pi1W-41" style="edgeStyle=orthogonalEdgeStyle;rounded=1;orthogonalLoop=1;jettySize=auto;html=1;entryX=0;entryY=0.5;entryDx=0;entryDy=0;curved=0;strokeColor=#000000;" edge="1" parent="1" source="DQRrSMZlwbo2s5G8Pi1W-28" target="DQRrSMZlwbo2s5G8Pi1W-39">
          <mxGeometry relative="1" as="geometry" />
        </mxCell>
        <mxCell id="DQRrSMZlwbo2s5G8Pi1W-28" value="&lt;font style=&quot;font-size: 15px;&quot;&gt;Cluster scheme root&lt;/font&gt;" style="rounded=1;whiteSpace=wrap;html=1;fillColor=#bac8d3;strokeColor=#23445d;fontColor=#000000;" vertex="1" parent="1">
          <mxGeometry width="160" height="60" as="geometry" />
        </mxCell>
        <mxCell id="DQRrSMZlwbo2s5G8Pi1W-43" style="edgeStyle=orthogonalEdgeStyle;rounded=1;orthogonalLoop=1;jettySize=auto;html=1;entryX=0;entryY=0.5;entryDx=0;entryDy=0;curved=0;strokeColor=#000000;" edge="1" parent="1" source="DQRrSMZlwbo2s5G8Pi1W-29" target="DQRrSMZlwbo2s5G8Pi1W-31">
          <mxGeometry relative="1" as="geometry" />
        </mxCell>
        <mxCell id="DQRrSMZlwbo2s5G8Pi1W-44" style="edgeStyle=orthogonalEdgeStyle;rounded=1;orthogonalLoop=1;jettySize=auto;html=1;entryX=0;entryY=0.5;entryDx=0;entryDy=0;curved=0;strokeColor=#000000;" edge="1" parent="1" source="DQRrSMZlwbo2s5G8Pi1W-29" target="DQRrSMZlwbo2s5G8Pi1W-32">
          <mxGeometry relative="1" as="geometry" />
        </mxCell>
        <mxCell id="DQRrSMZlwbo2s5G8Pi1W-47" style="edgeStyle=orthogonalEdgeStyle;rounded=1;orthogonalLoop=1;jettySize=auto;html=1;entryX=0;entryY=0.5;entryDx=0;entryDy=0;curved=0;strokeColor=#000000;" edge="1" parent="1" source="DQRrSMZlwbo2s5G8Pi1W-29" target="DQRrSMZlwbo2s5G8Pi1W-35">
          <mxGeometry relative="1" as="geometry" />
        </mxCell>
        <mxCell id="DQRrSMZlwbo2s5G8Pi1W-29" value="&lt;font style=&quot;font-size: 15px;&quot;&gt;Database 1&lt;/font&gt;" style="rounded=1;whiteSpace=wrap;html=1;fillColor=#7F7AA1;strokeColor=#7f7aa1;fontColor=#ffffff;" vertex="1" parent="1">
          <mxGeometry x="120" y="80" width="160" height="60" as="geometry" />
        </mxCell>
        <mxCell id="DQRrSMZlwbo2s5G8Pi1W-31" value="&lt;font style=&quot;font-size: 15px;&quot;&gt;Table 1&lt;/font&gt;" style="rounded=1;whiteSpace=wrap;html=1;fillColor=none;strokeColor=#3399FF;" vertex="1" parent="1">
          <mxGeometry x="240" y="160" width="160" height="60" as="geometry" />
        </mxCell>
        <mxCell id="DQRrSMZlwbo2s5G8Pi1W-45" style="edgeStyle=orthogonalEdgeStyle;rounded=1;orthogonalLoop=1;jettySize=auto;html=1;entryX=0;entryY=0.5;entryDx=0;entryDy=0;curved=0;strokeColor=#000000;" edge="1" parent="1" source="DQRrSMZlwbo2s5G8Pi1W-32" target="DQRrSMZlwbo2s5G8Pi1W-33">
          <mxGeometry relative="1" as="geometry" />
        </mxCell>
        <mxCell id="DQRrSMZlwbo2s5G8Pi1W-46" style="edgeStyle=orthogonalEdgeStyle;rounded=1;orthogonalLoop=1;jettySize=auto;html=1;entryX=0;entryY=0.5;entryDx=0;entryDy=0;curved=0;strokeColor=#000000;" edge="1" parent="1" source="DQRrSMZlwbo2s5G8Pi1W-32" target="DQRrSMZlwbo2s5G8Pi1W-34">
          <mxGeometry relative="1" as="geometry" />
        </mxCell>
        <mxCell id="DQRrSMZlwbo2s5G8Pi1W-32" value="&lt;font style=&quot;font-size: 15px;&quot;&gt;Directory 1&lt;/font&gt;" style="rounded=1;whiteSpace=wrap;html=1;fillColor=#7F7AA1;strokeColor=#7f7aa1;fontColor=#ffffff;" vertex="1" parent="1">
          <mxGeometry x="240" y="240" width="160" height="60" as="geometry" />
        </mxCell>
        <mxCell id="DQRrSMZlwbo2s5G8Pi1W-33" value="&lt;font style=&quot;font-size: 15px;&quot;&gt;Table 2&lt;/font&gt;" style="rounded=1;whiteSpace=wrap;html=1;fillColor=none;strokeColor=#3399FF;" vertex="1" parent="1">
          <mxGeometry x="360" y="320" width="160" height="60" as="geometry" />
        </mxCell>
        <mxCell id="DQRrSMZlwbo2s5G8Pi1W-34" value="&lt;font style=&quot;font-size: 15px;&quot;&gt;Table 3&lt;/font&gt;" style="rounded=1;whiteSpace=wrap;html=1;fillColor=none;strokeColor=#3399FF;" vertex="1" parent="1">
          <mxGeometry x="360" y="400" width="160" height="60" as="geometry" />
        </mxCell>
        <mxCell id="DQRrSMZlwbo2s5G8Pi1W-48" style="edgeStyle=orthogonalEdgeStyle;rounded=1;orthogonalLoop=1;jettySize=auto;html=1;entryX=0;entryY=0.5;entryDx=0;entryDy=0;curved=0;strokeColor=#000000;" edge="1" parent="1" source="DQRrSMZlwbo2s5G8Pi1W-35" target="DQRrSMZlwbo2s5G8Pi1W-36">
          <mxGeometry relative="1" as="geometry" />
        </mxCell>
        <mxCell id="DQRrSMZlwbo2s5G8Pi1W-49" style="edgeStyle=orthogonalEdgeStyle;rounded=1;orthogonalLoop=1;jettySize=auto;html=1;entryX=0;entryY=0.5;entryDx=0;entryDy=0;curved=0;strokeColor=#000000;" edge="1" parent="1" source="DQRrSMZlwbo2s5G8Pi1W-35" target="DQRrSMZlwbo2s5G8Pi1W-38">
          <mxGeometry relative="1" as="geometry" />
        </mxCell>
        <mxCell id="DQRrSMZlwbo2s5G8Pi1W-35" value="&lt;font style=&quot;font-size: 15px;&quot;&gt;Directory 2&lt;/font&gt;" style="rounded=1;whiteSpace=wrap;html=1;fillColor=#7F7AA1;strokeColor=#7f7aa1;fontColor=#ffffff;" vertex="1" parent="1">
          <mxGeometry x="240" y="480" width="160" height="60" as="geometry" />
        </mxCell>
        <mxCell id="DQRrSMZlwbo2s5G8Pi1W-50" style="edgeStyle=orthogonalEdgeStyle;rounded=1;orthogonalLoop=1;jettySize=auto;html=1;entryX=0;entryY=0.5;entryDx=0;entryDy=0;curved=0;strokeColor=#000000;" edge="1" parent="1" source="DQRrSMZlwbo2s5G8Pi1W-36" target="DQRrSMZlwbo2s5G8Pi1W-37">
          <mxGeometry relative="1" as="geometry" />
        </mxCell>
        <mxCell id="DQRrSMZlwbo2s5G8Pi1W-36" value="&lt;font style=&quot;font-size: 15px;&quot;&gt;Directory 3&lt;/font&gt;" style="rounded=1;whiteSpace=wrap;html=1;fillColor=#7F7AA1;strokeColor=#7f7aa1;fontColor=#ffffff;" vertex="1" parent="1">
          <mxGeometry x="360" y="560" width="160" height="60" as="geometry" />
        </mxCell>
        <mxCell id="DQRrSMZlwbo2s5G8Pi1W-37" value="&lt;font style=&quot;font-size: 15px;&quot;&gt;...&lt;/font&gt;" style="rounded=1;whiteSpace=wrap;html=1;fillColor=none;" vertex="1" parent="1">
          <mxGeometry x="480" y="640" width="160" height="60" as="geometry" />
        </mxCell>
        <mxCell id="DQRrSMZlwbo2s5G8Pi1W-38" value="&lt;font style=&quot;font-size: 15px;&quot;&gt;...&lt;/font&gt;" style="rounded=1;whiteSpace=wrap;html=1;fillColor=none;" vertex="1" parent="1">
          <mxGeometry x="360" y="720" width="160" height="60" as="geometry" />
        </mxCell>
        <mxCell id="DQRrSMZlwbo2s5G8Pi1W-42" style="edgeStyle=orthogonalEdgeStyle;rounded=1;orthogonalLoop=1;jettySize=auto;html=1;entryX=0;entryY=0.5;entryDx=0;entryDy=0;curved=0;strokeColor=#000000;" edge="1" parent="1" source="DQRrSMZlwbo2s5G8Pi1W-39" target="DQRrSMZlwbo2s5G8Pi1W-40">
          <mxGeometry relative="1" as="geometry" />
        </mxCell>
        <mxCell id="DQRrSMZlwbo2s5G8Pi1W-39" value="&lt;font style=&quot;font-size: 15px;&quot;&gt;Database 2&lt;/font&gt;" style="rounded=1;whiteSpace=wrap;html=1;fillColor=#7F7AA1;strokeColor=#7f7aa1;fontColor=#ffffff;" vertex="1" parent="1">
          <mxGeometry x="120" y="800" width="160" height="60" as="geometry" />
        </mxCell>
        <mxCell id="DQRrSMZlwbo2s5G8Pi1W-40" value="&lt;font style=&quot;font-size: 15px;&quot;&gt;...&lt;/font&gt;" style="rounded=1;whiteSpace=wrap;html=1;fillColor=none;" vertex="1" parent="1">
          <mxGeometry x="240" y="880" width="160" height="60" as="geometry" />
        </mxCell>
      </root>
    </mxGraphModel>
  </diagram>
</mxfile>
